<svg width="24" height="22" viewBox="0 0 24 22" fill="none" xmlns="http://www.w3.org/2000/svg">
<path d="M16.6433 3.56653V4.81807C16.002 4.95434 14.5953 5.45042 14.5953 7.32812C14.5953 10.5237 18.2176 9.57688 18.2176 11.7097C18.2176 12.7773 17.4608 12.8033 17.3074 12.8033C17.1671 12.8033 16.2439 12.8718 16.2439 11.2383H14.2656C14.2656 14.0048 16.4627 14.2246 16.7896 14.2662H16.6433V15.455H17.8322V14.2662H17.8415C18.1957 14.2257 20.1959 13.9248 20.1959 11.6981C20.1959 8.63203 16.5749 9.22055 16.5737 7.33741C16.5737 6.25912 17.2228 6.22518 17.3631 6.22518C17.6187 6.22518 18.2315 6.4324 18.2315 7.74608H20.2099C20.2099 5.23404 18.33 4.84036 17.9947 4.78092L17.8322 4.77628V3.56653H16.6433Z" fill="#5082F0"/>
<path d="M6.49456 0.00012207C2.82934 0.00012207 0.561924 1.36776 0.561924 1.36776L6.96921e-06 1.71606V19.0217C-0.000117764 19.0581 0.00143189 19.0945 0.00465091 19.1308C0.00463882 19.1339 0.00463882 19.137 0.00465091 19.1401C0.00837713 19.1767 0.0138009 19.2132 0.0209047 19.2493C0.0560108 19.4412 0.137836 19.6216 0.259158 19.7745C0.38048 19.9274 0.537569 20.048 0.716559 20.1258C0.895549 20.2036 1.09094 20.2361 1.28548 20.2206C1.48002 20.205 1.66773 20.1417 1.83204 20.0364C2.11847 19.9022 4.07857 19.0217 6.49456 19.0217C7.64959 19.0217 8.70245 19.2405 9.55724 19.4745C9.7692 20.5706 10.7303 21.3994 11.8885 21.3994C13.0467 21.3994 14.0078 20.5706 14.2198 19.4745C15.0745 19.2405 16.1274 19.0217 17.2824 19.0217C19.6739 19.0217 21.6125 19.8811 21.931 20.0294L21.9333 20.0318C22.1021 20.1431 22.2965 20.2095 22.4981 20.2248C22.6997 20.24 22.9018 20.2036 23.0855 20.119C23.2691 20.0344 23.4281 19.9044 23.5475 19.7412C23.6668 19.5781 23.7426 19.3872 23.7677 19.1866C23.7677 19.185 23.7677 19.1835 23.7677 19.1819C23.7708 19.1565 23.7732 19.1309 23.7747 19.1053C23.7757 19.0914 23.7765 19.0774 23.777 19.0635C23.7772 19.0496 23.7772 19.0356 23.777 19.0217V1.71606L23.2151 1.36776C23.2151 1.36776 20.9477 0.00012207 17.2824 0.00012207C15.619 0.00012207 14.2519 0.264496 13.2468 0.559717C12.728 0.712042 12.2719 0.984482 11.8885 1.33061C11.5051 0.984482 11.049 0.712042 10.5301 0.559717H10.5278C9.52297 0.264696 8.15707 0.00012207 6.49456 0.00012207ZM6.49456 2.37782C7.90547 2.37782 9.04284 2.60245 9.85909 2.84221C10.3632 2.98987 10.6996 3.44334 10.6996 3.9823V17.3081C9.62572 16.9774 8.13958 16.644 6.49456 16.644C4.87906 16.644 3.42917 16.9676 2.3777 17.2942V3.14639C2.94868 2.86638 4.13062 2.37782 6.49456 2.37782ZM17.2824 2.37782C19.6464 2.37782 20.8283 2.86638 21.3993 3.14639V17.2942C20.3478 16.9676 18.8979 16.644 17.2824 16.644C15.6374 16.644 14.1513 16.9774 13.0773 17.3081V3.9823C13.0773 3.44334 13.4138 2.98987 13.9179 2.84221C14.7341 2.60245 15.8715 2.37782 17.2824 2.37782Z" fill="black"/>
</svg>
