<svg width="23" height="27" viewBox="0 0 23 27" fill="none" xmlns="http://www.w3.org/2000/svg">
<path d="M10.5 25.5H2.5C2.23478 25.5 1.98043 25.3946 1.79289 25.2071C1.60536 25.0196 1.5 24.7652 1.5 24.5V2.5C1.5 2.23478 1.60536 1.98043 1.79289 1.79289C1.98043 1.60536 2.23478 1.5 2.5 1.5H12.43L21.5 10.57V13" stroke="white" stroke-width="2" stroke-linecap="round"/>
<path d="M12.5 1.5V9.5C12.5 9.76522 12.6054 10.0196 12.7929 10.2071C12.9804 10.3946 13.2348 10.5 13.5 10.5H21.5" stroke="white" stroke-width="2" stroke-linejoin="bevel"/>
<path d="M18.6098 22.6159C20.2344 20.9913 20.2344 18.3573 18.6098 16.7328C16.9853 15.1082 14.3513 15.1082 12.7267 16.7328C11.1021 18.3573 11.1021 20.9913 12.7267 22.6159C14.3513 24.2405 16.9853 24.2405 18.6098 22.6159Z" stroke="#5082F0" stroke-width="2" stroke-linecap="round" stroke-linejoin="round"/>
<path d="M18.6094 22.6101L21.1694 25.1601" stroke="#5082F0" stroke-width="2" stroke-linecap="round" stroke-linejoin="round"/>
</svg>
