<svg width="212" height="44" viewBox="0 0 212 44" fill="none" xmlns="http://www.w3.org/2000/svg">
<path d="M56.6199 21.1483C58.0597 21.1483 59.1493 20.2492 59.1493 18.9983C59.1493 17.8256 58.0986 17.1219 56.6588 17.1219H55.1412V21.1483H56.6199ZM51.9113 14.3074H57.048C60.0833 14.3074 62.2624 16.2619 62.2624 18.9983C62.2624 21.7737 60.0833 23.7674 57.048 23.7674H55.1412V28.8492H51.9113V14.3074Z" fill="white"/>
<path d="M64.0525 14.3074H67.3602V25.8392H74.0145V28.8492H64.0525V14.3074Z" fill="white"/>
<path d="M82.6534 17.7083L78.7231 28.8492H75.2986L80.9801 14.3074H84.3656L89.9692 28.8492H86.467L82.6534 17.7083Z" fill="white"/>
<path d="M105.029 28.8492H102.071L95.3004 19.5065V28.8492H92.0706V14.3074H94.9891L101.838 23.5719V14.3074H105.029V28.8492Z" fill="white"/>
<path d="M114.407 25.9955C116.664 25.9955 118.221 24.0409 118.221 21.5782C118.221 19.1155 116.664 17.1609 114.407 17.1609C112.15 17.1609 110.594 19.1155 110.594 21.5782C110.594 24.0409 112.15 25.9955 114.407 25.9955ZM114.407 14.0728C118.415 14.0728 121.606 17.3955 121.606 21.5782C121.606 25.7609 118.415 29.0837 114.407 29.0837C110.399 29.0837 107.208 25.8 107.208 21.5782C107.208 17.3955 110.399 14.0728 114.407 14.0728Z" fill="white"/>
<path d="M145.772 21.1483C147.212 21.1483 148.301 20.2492 148.301 18.9983C148.301 17.8256 147.251 17.1219 145.811 17.1219H144.293V21.1483H145.772ZM141.063 14.3074H146.2C149.235 14.3074 151.414 16.2619 151.414 18.9983C151.414 21.7737 149.235 23.7674 146.2 23.7674H144.293V28.8492H141.063V14.3074Z" fill="white"/>
<path d="M153.205 14.3074H156.512V25.8392H163.128V28.8492H153.205V14.3074Z" fill="white"/>
<path d="M171.805 17.7083L167.836 28.8492H164.451L170.093 14.3074H173.518L179.121 28.8492H175.619L171.805 17.7083Z" fill="white"/>
<path d="M194.142 28.8492H191.224L184.453 19.5065V28.8492H181.223V14.3074H184.102L190.99 23.5719V14.3074H194.142V28.8492Z" fill="white"/>
<path d="M203.559 25.9955C205.816 25.9955 207.373 24.0409 207.373 21.5782C207.373 19.1155 205.816 17.1609 203.559 17.1609C201.302 17.1609 199.746 19.1155 199.746 21.5782C199.746 24.0409 201.263 25.9955 203.559 25.9955ZM203.559 14.0728C207.567 14.0728 210.758 17.3955 210.758 21.5782C210.758 25.7609 207.567 29.0837 203.559 29.0837C199.551 29.0837 196.36 25.8 196.36 21.5782C196.36 17.3955 199.512 14.0728 203.559 14.0728Z" fill="white"/>
<path d="M129.117 22.7509C127.988 23.3373 127.56 24.08 127.56 24.9791C127.56 25.9173 128.3 26.5037 129.739 26.5037C130.634 26.5037 131.374 26.3082 131.957 25.8391L129.117 22.7509ZM134.604 28.8491L133.514 27.6764C132.385 28.6146 131.023 29.0837 129.35 29.0837C126.432 29.0837 124.642 27.8328 124.642 25.2137C124.642 23.1809 125.77 21.9691 127.56 21.0309L127.21 20.6009C126.432 19.7409 125.965 18.8028 125.965 17.6691C125.965 15.2846 127.833 14.0728 130.245 14.0728C131.996 14.0728 133.164 14.62 134.526 15.5973L133.164 17.6691C132.23 16.9264 131.218 16.6137 130.167 16.6137C129.311 16.6137 128.805 16.9655 128.805 17.5909C128.805 18.2164 129.117 18.6464 129.584 19.1546L133.514 23.7282C133.825 23.0637 134.176 22.2818 134.526 21.3437L136.822 22.0864C136.394 23.4937 135.849 24.7055 135.187 25.7219L137.911 28.8491H134.604Z" fill="#FF2732"/>
<path d="M24.5547 5.78546C26.6561 6.99728 28.0959 9.26455 28.0959 11.8055C28.0959 13.6427 27.3565 15.3236 26.1891 16.5746V22.4773C30.0027 20.4445 32.6099 16.4964 32.6099 11.9618C32.6099 5.35546 26.9285 0 19.9628 0V37.41L20.0407 37.3709C17.9393 36.1591 16.4995 33.8918 16.4995 31.3509C16.4995 29.5136 17.2389 27.8327 18.4063 26.6209V20.7182C14.5927 22.7509 11.9855 26.6991 11.9855 31.2336C11.9855 37.84 17.6669 43.1955 24.6325 43.1955H24.5547V5.78546Z" fill="#FF2732"/>
<path d="M33.8552 7.70097C34.4 9.03006 34.5946 10.6328 34.5946 12.1573C34.5946 14.0728 34.1276 15.9101 33.2715 17.5128L33.3104 17.4737H40.3149C40.7041 16.1837 40.8208 14.8937 40.8208 13.721C40.7819 10.3592 39.3421 7.1146 37.0072 4.69097L36.9294 4.61279C36.8905 4.61279 35.762 5.78552 33.8552 7.70097Z" fill="#FF2732"/>
<path d="M35.9565 33.071C34.6334 33.6183 33.038 33.8137 31.5203 33.8137C29.6135 33.8137 27.7846 33.3446 26.1891 32.4846L26.228 32.5237V39.5601C27.5122 39.951 28.7963 40.0682 29.9638 40.0682C33.3104 40.0292 36.5402 38.5828 38.9529 36.2373L39.0307 36.1592C39.0307 36.1201 37.8633 34.9473 35.9565 33.071Z" fill="#FF2732"/>
<path d="M10.7403 35.4554C10.1955 34.1263 10.0009 32.5235 10.0009 30.999C10.0009 29.0835 10.4679 27.2463 11.324 25.6436L11.2851 25.7217H4.28054C3.8914 27.0117 3.73574 28.3017 3.77466 29.4745C3.81357 32.8363 5.25339 36.0808 7.58823 38.5045L7.66606 38.5826C7.66606 38.5436 8.83349 37.3708 10.7403 35.4554Z" fill="#FF2732"/>
<path d="M8.6389 10.0854C9.96198 9.5381 11.5575 9.34265 13.0751 9.34265C14.9819 9.34265 16.8109 9.81174 18.4063 10.6717L18.3674 10.6326V3.59628C17.0832 3.20537 15.838 3.04901 14.6317 3.0881C11.2851 3.12719 8.05519 4.57355 5.64252 6.91901L5.5647 6.99719C5.5647 7.03628 6.73212 8.20901 8.6389 10.0854Z" fill="#FF2732"/>
<path d="M32.571 19.1936H43.428V19.2718C43.428 22.8682 42.0271 26.3472 39.4588 28.81C37.7855 30.4127 35.5674 31.7418 32.571 31.9372L31.8706 31.9763H31.8317H31.7927L31.0923 31.9372C29.1855 31.82 27.5511 31.2336 26.1502 30.4127V24.6272C26.1502 24.6272 26.1502 24.6272 26.1891 24.6272C27.4344 26.1127 29.1466 27.3245 31.8317 27.3245C34.9837 27.3245 36.5403 25.6436 37.6688 23.9236H27.6289C29.7303 22.7509 31.4036 21.1481 32.571 19.1936Z" fill="#FF2732"/>
<path d="M12.0244 23.9627H1.16742V23.8845C1.16742 20.2881 2.56832 16.809 5.13665 14.3463C6.80995 12.7436 9.02806 11.4145 12.0244 11.219L12.7249 11.1799H12.7638H12.8027L13.5032 11.219C15.41 11.3363 17.0443 11.9227 18.4453 12.7436V18.529C18.4453 18.529 18.4452 18.529 18.4063 18.529C17.1611 17.0436 15.4489 15.8317 12.7638 15.8317C9.61176 15.8317 8.0552 17.5127 6.9267 19.2327H16.9665C14.8652 20.4054 13.1529 22.0081 12.0244 23.9627Z" fill="#FF2732"/>
</svg>
