<svg width="28" height="25" viewBox="0 0 28 25" fill="none" xmlns="http://www.w3.org/2000/svg">
<path d="M23.5 11.79V6.5C23.5 6.23478 23.3946 5.98044 23.2071 5.79291C23.0196 5.60537 22.7652 5.5 22.5 5.5H1.5V19.5C1.5 19.7652 1.60537 20.0196 1.79291 20.2071C1.98044 20.3946 2.23478 20.5 2.5 20.5H6.5" stroke="white" stroke-width="2" stroke-linecap="round"/>
<path d="M1.5 5.50002H12.5L10.78 2.05001C10.6961 1.88358 10.5674 1.7439 10.4084 1.64672C10.2494 1.54954 10.0664 1.49873 9.88 1.50002H2.5C2.23478 1.50002 1.98044 1.6054 1.79291 1.79293C1.60537 1.98047 1.5 2.23481 1.5 2.50002V5.50002Z" stroke="white" stroke-width="2" stroke-linecap="round"/>
<path d="M22.0908 15.18C21.8559 15.183 21.6217 15.2064 21.3908 15.25C21.0224 14.7155 20.5295 14.2787 19.9545 13.9773C19.3796 13.6759 18.7399 13.519 18.0908 13.52C17.4277 13.5212 16.7752 13.6873 16.1922 14.0032C15.6092 14.3192 15.1139 14.7751 14.7508 15.33C14.5333 15.287 14.3124 15.2636 14.0908 15.26C13.4792 15.256 12.8749 15.3923 12.3242 15.6583C11.7736 15.9244 11.2912 16.3132 10.9143 16.7948C10.5374 17.2765 10.276 17.8381 10.1501 18.4366C10.0242 19.0351 10.0372 19.6544 10.1882 20.2471C10.3391 20.8398 10.6239 21.3899 11.0208 21.8553C11.4176 22.3207 11.9158 22.6888 12.4771 22.9315C13.0385 23.1742 13.6481 23.285 14.2589 23.2552C14.8698 23.2255 15.4657 23.0561 16.0008 22.76C16.5695 23.3122 17.3335 23.6169 18.1261 23.6075C18.9187 23.5981 19.6753 23.2755 20.2308 22.71C20.768 22.9963 21.3634 23.1562 21.9717 23.1775C22.5801 23.1989 23.1853 23.0811 23.7412 22.8331C24.2971 22.5852 24.7891 22.2137 25.1797 21.7468C25.5703 21.28 25.8492 20.7301 25.9952 20.1392C26.1412 19.5483 26.1504 18.9318 26.0221 18.3368C25.8937 17.7417 25.6313 17.1838 25.2548 16.7056C24.8782 16.2273 24.3975 15.8413 23.8492 15.5769C23.3009 15.3126 22.6995 15.1768 22.0908 15.18V15.18Z" stroke="#5082F0" stroke-width="2" stroke-miterlimit="10"/>
</svg>
