<?xml version="1.0" encoding="utf-8"?>
<!-- Generator: Adobe Illustrator 25.0.0, SVG Export Plug-In . SVG Version: 6.00 Build 0)  -->
<svg version="1.1" id="Camada_1" xmlns="http://www.w3.org/2000/svg" xmlns:xlink="http://www.w3.org/1999/xlink" x="0px" y="0px"
	 viewBox="0 0 540.31 111.82" style="enable-background:new 0 0 540.31 111.82;" xml:space="preserve">
<style type="text/css">
	.st0{fill:#001651;}
	.st1{fill:#FF2732;}
</style>
<g>
	<path class="st0" d="M143.39,54.95c3.68,0,6.45-2.34,6.45-5.49c0-3.04-2.72-4.81-6.4-4.81h-3.89v10.3H143.39z M131.3,37.47h13.15
		c7.84,0,13.43,5.01,13.43,11.99c0,7.09-5.6,12.21-13.43,12.21h-4.9v13.01h-8.26V37.47z"/>
</g>
<polygon class="st0" points="162.5,37.47 170.97,37.47 170.97,66.99 188.01,66.99 188.01,74.67 162.5,74.67 "/>
<polygon class="st0" points="210.25,46.2 200.13,74.64 191.4,74.64 205.91,37.5 214.65,37.5 229.1,74.64 220.06,74.64 "/>
<polygon class="st0" points="267.72,74.66 260.2,74.66 242.75,50.76 242.75,74.67 234.5,74.67 234.5,37.47 241.93,37.47 
	259.56,61.21 259.56,37.47 267.72,37.47 "/>
<g>
	<path class="st0" d="M291.85,67.42c5.82,0,9.78-4.99,9.78-11.35c0-6.35-3.95-11.35-9.78-11.35c-5.83,0-9.81,5-9.81,11.35
		C282.05,62.42,286.03,67.42,291.85,67.42 M291.85,36.92c10.34,0,18.53,8.47,18.53,19.15c0,10.74-8.19,19.16-18.53,19.16
		c-10.34,0-18.49-8.42-18.49-19.16C273.36,45.38,281.51,36.92,291.85,36.92"/>
	<path class="st0" d="M372.45,54.95c3.68,0,6.45-2.34,6.45-5.49c0-3.04-2.72-4.81-6.4-4.81h-3.89v10.3H372.45z M360.36,37.47h13.15
		c7.84,0,13.43,5.01,13.43,11.99c0,7.09-5.6,12.21-13.43,12.21h-4.9v13.01h-8.26V37.47z"/>
</g>
<polygon class="st0" points="391.56,37.47 400.03,37.47 400.03,66.99 417.08,66.99 417.08,74.67 391.56,74.67 "/>
<polygon class="st0" points="439.31,46.2 429.19,74.64 420.46,74.64 434.97,37.5 443.71,37.5 458.16,74.64 449.12,74.64 "/>
<polygon class="st0" points="496.78,74.66 489.26,74.66 471.81,50.76 471.81,74.67 463.56,74.67 463.56,37.47 470.99,37.47 
	488.63,61.21 488.63,37.47 496.78,37.47 "/>
<g>
	<path class="st0" d="M520.92,67.42c5.82,0,9.78-4.99,9.78-11.35c0-6.35-3.95-11.35-9.78-11.35c-5.83,0-9.81,5-9.81,11.35
		C511.11,62.42,515.09,67.42,520.92,67.42 M520.91,36.92c10.34,0,18.53,8.47,18.53,19.15c0,10.74-8.19,19.16-18.53,19.16
		c-10.34,0-18.49-8.42-18.49-19.16C502.43,45.38,510.58,36.92,520.91,36.92"/>
	<path class="st1" d="M329.61,59.06c-2.91,1.54-4.05,3.45-4.05,5.66c0,2.38,1.89,3.92,5.58,3.92c2.28,0,4.16-0.51,5.7-1.66
		L329.61,59.06z M343.8,74.63l-2.79-3.01c-2.91,2.38-6.41,3.61-10.73,3.61c-7.55,0-12.1-3.17-12.1-9.87c0-5.19,2.87-8.32,7.54-10.66
		l-0.94-1.07c-1.97-2.18-3.22-4.56-3.22-7.53c0-6.06,4.76-9.19,10.97-9.19c4.52,0,7.47,1.39,11,3.88l-3.54,5.35
		c-2.44-1.86-5.03-2.65-7.66-2.65c-2.16,0-3.46,0.91-3.46,2.46c0,1.58,0.79,2.65,1.97,4.04l10.14,11.69
		c0.83-1.7,1.69-3.72,2.59-6.14l5.93,1.9c-1.14,3.61-2.52,6.74-4.17,9.27l6.96,7.96h-8.49V74.63z"/>
	<path class="st1" d="M60.96,15.67c5.44,3.12,9.09,8.87,9.09,15.44c0,4.7-1.87,8.99-4.93,12.18l-0.01,15.07
		c9.85-5.19,16.53-15.3,16.53-26.92c0-16.92-14.55-30.64-32.51-30.64l0.24,0l-0.24,0v95.72l0.2-0.06
		c-5.44-3.12-9.09-8.87-9.09-15.44c0-4.68,1.86-8.95,4.89-12.14l0-15.09C35.31,59,28.64,69.1,28.64,80.7
		c0,16.92,14.55,30.64,32.51,30.64l-0.21-0.01h0.03V15.65L60.96,15.67z"/>
	<path class="st1" d="M84.87,20.57c1.44,3.45,1.88,7.53,1.88,11.41c0,4.91-1.22,9.57-3.41,13.73l0.1-0.15h18
		c1-3.28,1.35-6.55,1.3-9.63c-0.15-8.65-3.77-16.87-9.82-23.05l-0.21-0.21C92.7,12.66,89.71,15.69,84.87,20.57"/>
	<path class="st1" d="M90.26,85.46c-3.44,1.44-7.53,1.88-11.41,1.88c-4.91,0-9.57-1.22-13.73-3.41l0.15,0.1v18
		c3.28,1,6.55,1.35,9.63,1.3c8.65-0.14,16.87-3.77,23.05-9.82l0.22-0.21C98.17,93.29,95.13,90.29,90.26,85.46"/>
	<path class="st1" d="M25.42,91.57c-1.44-3.44-1.88-7.53-1.88-11.41c0-4.91,1.22-9.57,3.41-13.73l-0.1,0.15h-18
		c-1.01,3.28-1.35,6.55-1.3,9.63c0.14,8.65,3.77,16.87,9.82,23.05l0.21,0.21C17.59,99.48,20.59,96.45,25.42,91.57"/>
	<path class="st1" d="M20.04,26.69c3.44-1.44,7.53-1.88,11.41-1.88c4.91,0,9.57,1.22,13.73,3.41l-0.15-0.1v-18
		c-3.28-1-6.55-1.35-9.63-1.3c-8.64,0.14-16.87,3.77-23.05,9.82l-0.22,0.21C12.13,18.85,15.16,21.85,20.04,26.69"/>
	<path class="st1" d="M81.53,50h27.9v-0.04l0,0.2c-0.04,9.18-3.61,18.08-10.22,24.44c-4.26,4.1-10.03,7.48-17.66,7.96l-1.8,0.08
		h-0.08h-0.08h-0.04l-1.76-0.08c-4.92-0.29-9.14-1.82-12.67-3.93v-14.8c0,0,0.04-0.04,0.08-0.04c3.24,3.84,7.62,6.86,14.47,6.86
		c8.08,0,12.13-4.3,15.05-8.68H68.96l-0.01-0.02c5.27-2.92,9.64-7.03,12.63-11.93L81.53,50z"/>
	<path class="st1" d="M28.76,62.14H0.86v0.04l0-0.2C0.91,52.8,4.47,43.9,11.08,37.54c4.26-4.1,10.03-7.48,17.66-7.96l1.8-0.08h0.08
		h0.08h0.04l1.76,0.08c4.92,0.29,9.14,1.82,12.67,3.93v14.8c0,0-0.04,0.04-0.08,0.04c-3.24-3.84-7.62-6.86-14.47-6.86
		c-8.08,0-12.13,4.3-15.05,8.68h25.75l0.01,0.02c-5.27,2.92-9.64,7.04-12.63,11.93L28.76,62.14z"/>
</g>
</svg>
