<svg width="78" height="64" viewBox="0 0 78 64" fill="none" xmlns="http://www.w3.org/2000/svg">
<path d="M39 0L46.1844 22.1115H69.4338L50.6247 35.7771L57.8091 57.8885L39 44.2229L20.1909 57.8885L27.3753 35.7771L8.56619 22.1115H31.8156L39 0Z" fill="#FFB321"/>
<path d="M10 44L12.2451 50.9098H19.5106L13.6327 55.1803L15.8779 62.0902L10 57.8197L4.12215 62.0902L6.36729 55.1803L0.489435 50.9098H7.75486L10 44Z" fill="#FFB321"/>
<path d="M68 44L70.2451 50.9098H77.5106L71.6327 55.1803L73.8779 62.0902L68 57.8197L62.1221 62.0902L64.3673 55.1803L58.4894 50.9098H65.7549L68 44Z" fill="#FFB321"/>
</svg>
