<svg fill="#3064d6" xmlns="http://www.w3.org/2000/svg"  viewBox="0 0 32 32" width="32px" height="32px"><path d="M 9 5 L 9 16 L 11 16 L 11 12 L 15 12 L 15 16 L 17 16 L 17 12 L 21 12 L 21 16 L 23 16 L 23 5 Z M 11 7 L 21 7 L 21 10 L 11 10 Z M 4 16 L 4 19 L 4.59375 19 C 4.308594 19.949219 4 21.234375 4 22.5 C 4 24.585938 4.820313 26.730469 5 27.1875 L 5 28 L 27 28 L 27 27.1875 C 27.179688 26.730469 28 24.585938 28 22.5 C 28 21.234375 27.691406 19.949219 27.40625 19 L 28 19 L 28 16 L 26 16 L 26 17 L 6 17 L 6 16 Z M 6.71875 19 L 8.03125 19 C 7.816406 19.949219 7.59375 21.183594 7.59375 22.5 C 7.59375 23.816406 7.816406 25.050781 8.03125 26 L 6.71875 26 C 6.46875 25.28125 6 23.800781 6 22.5 C 6 21.199219 6.46875 19.71875 6.71875 19 Z M 10.09375 19 L 11.59375 19 C 11.5 19.921875 11.40625 21.171875 11.40625 22.5 C 11.40625 23.828125 11.5 25.078125 11.59375 26 L 10.09375 26 C 9.910156 25.226563 9.59375 23.824219 9.59375 22.5 C 9.59375 21.175781 9.910156 19.773438 10.09375 19 Z M 13.625 19 L 15 19 L 15 26 L 13.625 26 C 13.542969 25.15625 13.40625 23.835938 13.40625 22.5 C 13.40625 21.164063 13.542969 19.84375 13.625 19 Z M 17 19 L 18.375 19 C 18.457031 19.84375 18.59375 21.164063 18.59375 22.5 C 18.59375 23.835938 18.457031 25.15625 18.375 26 L 17 26 Z M 20.40625 19 L 21.90625 19 C 22.089844 19.773438 22.40625 21.175781 22.40625 22.5 C 22.40625 23.824219 22.089844 25.226563 21.90625 26 L 20.40625 26 C 20.5 25.078125 20.59375 23.828125 20.59375 22.5 C 20.59375 21.171875 20.5 19.921875 20.40625 19 Z M 23.96875 19 L 25.28125 19 C 25.53125 19.71875 26 21.199219 26 22.5 C 26 23.800781 25.53125 25.28125 25.28125 26 L 23.96875 26 C 24.183594 25.050781 24.40625 23.816406 24.40625 22.5 C 24.40625 21.183594 24.183594 19.949219 23.96875 19 Z"/></svg>