<svg width="25" height="25" viewBox="0 0 25 25" fill="none" xmlns="http://www.w3.org/2000/svg">
<path d="M20 0L10 10L0 20V25H5L7.51465 22.4854C6.9834 21.7779 6.58654 20.9658 6.39404 20.0708L3.96484 22.5H2.5V21.0352L6.52588 17.0093C7.12088 14.9668 8.71678 13.3709 10.7593 12.7759L20 3.53516L21.4648 5L13.9648 12.5H17.5L25 5L20 0Z" fill="#5082F0"/>
<path d="M8.32006 2.5C6.9938 2.5 5.72365 3.02609 4.7849 3.96484L0.883532 7.86621C-0.0977182 8.84746 -0.285746 10.4472 0.593004 11.521C1.12675 12.1747 1.88986 12.5 2.65111 12.5C3.32986 12.5 4.00861 12.2411 4.52611 11.7236L4.99974 11.25V10H2.65111C2.57861 10 2.54267 9.95504 2.53392 9.94629C2.52017 9.90629 2.53486 9.75004 2.65111 9.63379L6.55248 5.73242C6.85248 5.43242 7.21824 5.21635 7.61449 5.1001L12.0676 5L14.5676 2.5H8.32006ZM23.7497 10L18.7497 15H12.4997C10.4285 15 8.74974 16.6788 8.74974 18.75C8.74974 20.8213 10.4285 22.5 12.4997 22.5H23.7497V20H21.2497H17.302H12.4997C11.811 20 11.2497 19.4388 11.2497 18.75C11.2497 18.0613 11.811 17.5 12.4997 17.5H19.7849L23.7497 13.5522V10Z" fill="black"/>
</svg>
