<svg width="24" height="27" viewBox="0 0 24 27" fill="none" xmlns="http://www.w3.org/2000/svg">
<path d="M12.5 25.5H2.5C2.23478 25.5 1.98043 25.3946 1.79289 25.2071C1.60536 25.0196 1.5 24.7652 1.5 24.5V2.5C1.5 2.23478 1.60536 1.98044 1.79289 1.79291C1.98043 1.60537 2.23478 1.5 2.5 1.5H12.43L21.5 10.57V16" stroke="black" stroke-width="2" stroke-linecap="round"/>
<path d="M12.5 1.5V9.5C12.5 9.76522 12.6054 10.0196 12.7929 10.2071C12.9804 10.3946 13.2348 10.5 13.5 10.5H21.5" stroke="black" stroke-width="2" stroke-linejoin="bevel"/>
<path d="M21.2192 21.06V20.95L21.1392 20.87L15.1392 14.87C14.8567 14.5915 14.4759 14.4354 14.0792 14.4354C13.6825 14.4354 13.3017 14.5915 13.0192 14.87L11.9092 15.98C11.6307 16.2626 11.4746 16.6433 11.4746 17.04C11.4746 17.4367 11.6307 17.8175 11.9092 18.1L17.9092 24.1L17.9892 24.18H18.0992L20.9392 25.12C21.1146 25.177 21.3023 25.1844 21.4816 25.1413C21.6609 25.0982 21.8248 25.0064 21.9552 24.876C22.0856 24.7456 22.1774 24.5817 22.2205 24.4024C22.2635 24.2231 22.2562 24.0354 22.1992 23.86L21.2192 21.06Z" stroke="#5082F0" stroke-width="2"/>
<path d="M17.8691 23.39L20.3891 20.87" stroke="#5082F0" stroke-width="2"/>
</svg>
