<svg width="29" height="28" viewBox="0 0 29 28" fill="none" xmlns="http://www.w3.org/2000/svg">
<path d="M14.39 17.76H20.86C21.0062 17.7613 21.1511 17.7335 21.2864 17.6782C21.4217 17.6229 21.5446 17.5412 21.6479 17.4378C21.7513 17.3345 21.833 17.2116 21.8883 17.0763C21.9436 16.9411 21.9714 16.7961 21.97 16.65V15.09C21.97 14.7929 22.088 14.5081 22.2981 14.298C22.5081 14.088 22.793 13.97 23.09 13.97H26.17C26.4653 13.9726 26.7476 14.0918 26.9555 14.3015C27.1634 14.5113 27.2801 14.7947 27.2801 15.09V23.88C27.2814 24.1723 27.2249 24.4621 27.1139 24.7326C27.0029 25.0031 26.8396 25.249 26.6334 25.4562C26.4271 25.6634 26.1819 25.8278 25.9119 25.94C25.6419 26.0522 25.3524 26.11 25.0601 26.11H3.72002C3.42765 26.11 3.13815 26.0522 2.86816 25.94C2.59816 25.8278 2.353 25.6634 2.14672 25.4562C1.94044 25.249 1.77714 25.0031 1.66616 24.7326C1.55518 24.4621 1.49871 24.1723 1.50002 23.88V15.09C1.50001 14.7947 1.61666 14.5113 1.82455 14.3015C2.03243 14.0918 2.31473 13.9726 2.61004 13.97H5.69002C5.98707 13.97 6.27195 14.088 6.48199 14.298C6.69203 14.5081 6.81005 14.7929 6.81005 15.09V16.65C6.80872 16.7961 6.8365 16.9411 6.89181 17.0763C6.94712 17.2116 7.02882 17.3345 7.13216 17.4378C7.2355 17.5412 7.3584 17.6229 7.49367 17.6782C7.62895 17.7335 7.7739 17.7613 7.92004 17.76H14.39Z" stroke="black" stroke-width="2" stroke-linecap="round" stroke-linejoin="round"/>
<path d="M10.7691 2.21997H8.19913C7.75916 2.22079 7.32917 2.35115 6.96283 2.59478C6.59648 2.83842 6.31001 3.18455 6.13913 3.58997L1.61914 14.59" stroke="black" stroke-width="2" stroke-linecap="round" stroke-linejoin="round"/>
<path d="M27.0598 14.42L22.6398 3.58997C22.4689 3.18455 22.1824 2.83842 21.8161 2.59478C21.4497 2.35115 21.0197 2.22079 20.5798 2.21997H18.0098" stroke="black" stroke-width="2" stroke-linecap="round" stroke-linejoin="round"/>
<path d="M14.3906 1.5V11.44" stroke="#5082F0" stroke-width="2" stroke-linecap="round" stroke-linejoin="round"/>
<path d="M17.4993 8.34009L14.3893 11.4401L11.2793 8.34009" stroke="#5082F0" stroke-width="2" stroke-linecap="round" stroke-linejoin="round"/>
<path d="M9.80078 21.95H18.9908" stroke="black" stroke-width="2" stroke-linecap="round" stroke-linejoin="round"/>
</svg>
