<svg width="24" height="29" viewBox="0 0 24 29" fill="none" xmlns="http://www.w3.org/2000/svg">
<path d="M5.80078 15.9498V13.0498H8.70078V14.4998V15.9498H5.80078Z" fill="#5082F0"/>
<path d="M11.6008 15.9498V13.0498H17.4008V15.9498H11.6008Z" fill="#5082F0"/>
<path d="M5.80078 21.7498V18.8498H8.70078V21.7498H5.80078Z" fill="#5082F0"/>
<path d="M11.6008 21.7498V18.8498H17.4008V21.7498H11.6008Z" fill="#5082F0"/>
<path d="M2.9 0C1.31333 0 0 1.31333 0 2.9V26.1C0 27.6867 1.31333 29 2.9 29H20.3C21.8867 29 23.2 27.6867 23.2 26.1V8.7L14.5 0H2.9ZM2.9 2.9H13.05V10.15H20.3V26.1H2.9V2.9Z" fill="black"/>
</svg>
